<svg width="360" height="552" viewBox="0 0 360 552" fill="none" xmlns="http://www.w3.org/2000/svg">
<path d="M180.034 105.694L72.8641 167.929C67.71 170.927 63.4309 175.235 60.4566 180.423C57.4824 185.61 55.9178 191.493 55.9199 197.481V214.384L180.034 142.298V105.694Z" fill="url(#paint0_linear_12849_52542)"/>
<path d="M215.489 199.452L180.034 178.864L141.228 201.402L83.2069 235.091L72.8641 241.099C67.71 244.097 63.4309 248.405 60.4566 253.593C57.4824 258.78 55.9178 264.663 55.9199 270.651V214.365L180.034 142.28L212.688 161.252L215.489 168.403V199.452ZM253.883 185.169V221.221H261.934V226.422L276.841 235.091L287.183 241.099C292.342 244.093 296.627 248.4 299.604 253.588C302.582 258.775 304.149 264.661 304.147 270.651V214.365L253.883 185.169Z" fill="white"/>
<path d="M212.69 161.251L180.036 142.279V105.694L218.586 128.094V140.25H210.751L209.262 147.48V152.602L212.69 161.251ZM287.127 167.929L259.997 152.169V152.563L253.826 168.323V185.089L304.149 214.364V197.461C304.148 191.474 302.58 185.593 299.602 180.409C296.624 175.225 292.342 170.921 287.186 167.929H287.127Z" fill="#B61D22"/>
<path d="M249.085 350.972H110.986L103.718 356.981V361.788H256.353V356.981L249.085 350.972Z" fill="white"/>
<path d="M245.389 333.654L241.315 310.584C240.504 309.942 239.732 309.251 239.004 308.515L237.691 306.979V306.841C236.594 305.127 237.534 298.96 234.126 289.721C231.169 281.521 225.959 274.335 219.102 268.995C214.146 265.351 185.057 245.512 185.057 245.512H180.101V350.971H249.151L245.389 333.654Z" fill="url(#paint1_linear_12849_52542)"/>
<path d="M180.029 350.971V245.512H175.073C175.073 245.512 145.984 265.351 141.028 268.995C134.164 274.328 128.953 281.517 126.003 289.721C122.595 298.901 123.516 305.127 122.438 306.841C122.417 306.894 122.384 306.941 122.34 306.979L121.047 308.515C120.315 309.254 119.536 309.945 118.716 310.584L114.661 333.654L110.979 350.971H180.029Z" fill="url(#paint2_linear_12849_52542)"/>
<path d="M110.992 350.971L114.675 333.653L118.73 310.584C119.55 309.945 120.329 309.254 121.061 308.515L122.354 306.978C122.397 306.941 122.431 306.894 122.452 306.841C123.529 305.127 122.608 298.96 126.017 289.72C128.966 281.517 134.178 274.328 141.041 268.995C145.997 265.35 175.086 245.512 175.086 245.512C174.999 245.036 174.999 244.549 175.086 244.074C175.44 243.051 176.131 242.182 177.045 241.611C177.674 241.149 178.173 240.531 178.495 239.818C178.612 239.621 178.926 219.172 179.004 218.817C179.082 218.462 179.533 218.128 179.983 217.891V178.864L141.178 201.401L83.1568 235.09L72.814 241.099C67.6599 244.096 63.3808 248.405 60.4066 253.592C57.4324 258.779 55.8677 264.662 55.8699 270.65V361.806H103.666V356.999L110.992 350.971Z" fill="url(#paint3_linear_12849_52542)"/>
<path d="M287.184 241.1L276.841 235.091L261.934 226.422V233.259L259.584 248.507L256.332 255.816V361.787H304.148V270.631C304.147 264.644 302.578 258.763 299.6 253.579C296.623 248.395 292.34 244.091 287.184 241.1Z" fill="#231F20"/>
<path d="M180.035 217.891C180.466 218.128 180.936 218.502 181.015 218.817C181.093 219.132 181.407 239.621 181.505 239.818C181.84 240.522 182.337 241.137 182.954 241.611C183.87 242.18 184.562 243.05 184.913 244.074C184.993 244.55 184.993 245.036 184.913 245.512C184.913 245.512 202.856 257.746 212.944 264.759V255.815L209.712 248.506L207.362 233.258V221.221H215.412V199.451L179.957 178.864V217.891H180.035Z" fill="#231F20"/>
<path d="M213.024 255.816V264.76C215.786 266.73 217.98 268.208 219.038 268.996C225.895 274.335 231.105 281.522 234.062 289.721C234.297 290.371 234.493 291.002 234.689 291.691V8.13655C233.769 7.9888 232.931 7.5159 232.326 6.80277C231.721 6.08963 231.389 5.183 231.389 4.24564C231.389 3.30829 231.721 2.40163 232.326 1.68849C232.931 0.975357 233.769 0.502454 234.689 0.354709V7.79335e-05C233.437 -0.00699128 232.228 0.467104 231.312 1.32556C230.395 2.18403 229.838 3.36212 229.756 4.61927C229.673 5.87643 230.071 7.11786 230.868 8.09008C231.664 9.06229 232.8 9.69194 234.043 9.85052L233.69 11.9585C233.26 12.1544 232.895 12.47 232.639 12.8681C232.382 13.2661 232.244 13.7299 232.241 14.2044C232.24 14.6823 232.379 15.1497 232.64 15.5489C232.902 15.9481 233.273 16.2615 233.71 16.4503L233.122 19.8389C232.664 20.128 232.288 20.533 232.034 21.0135C231.78 21.494 231.655 22.0332 231.673 22.5773C231.674 23.1635 231.838 23.7377 232.146 24.2353C232.454 24.733 232.894 25.1344 233.416 25.3945L232.848 28.7437L229.283 34.5554V45.3515C227.245 46.3615 225.529 47.9243 224.328 49.8633C223.127 51.8023 222.489 54.0404 222.486 56.3249V66.4512H220.096V68.0469L222.486 77.8974V85.1867H215.845V92.0032L218.607 103.41V140.211H210.772L209.283 147.441V152.603L215.473 168.364V221.182H207.422V233.219L209.773 248.468L213.024 255.816Z" fill="url(#paint4_linear_12849_52542)"/>
<path d="M253.887 221.22V168.363L260.058 152.602V147.48L258.589 140.25H250.753V103.448L253.535 92.0416V85.2251H246.894V77.9358L249.284 68.0853V66.4895H246.894V56.3633C246.891 54.0762 246.251 51.8357 245.046 49.8961C243.841 47.9564 242.12 46.3953 240.077 45.3899V34.5938L236.532 28.7821L235.944 25.4329C236.471 25.1774 236.917 24.7776 237.228 24.2793C237.54 23.781 237.706 23.2045 237.707 22.6157C237.71 22.066 237.566 21.5256 237.29 21.0509C237.015 20.5761 236.617 20.1845 236.14 19.9167L235.572 16.5281C236.008 16.3393 236.38 16.0259 236.641 15.6267C236.902 15.2275 237.041 14.76 237.041 14.2822C237.038 13.8077 236.9 13.3439 236.643 12.9458C236.386 12.5478 236.021 12.2321 235.592 12.0363L235.219 9.92833C236.46 9.76983 237.595 9.14159 238.391 8.17152C239.188 7.20145 239.587 5.9625 239.507 4.70697C239.427 3.45145 238.874 2.27375 237.961 1.41371C237.048 0.553679 235.843 0.0759844 234.592 0.0778865V0.432488C235.513 0.580233 236.351 1.05314 236.956 1.76627C237.56 2.47941 237.893 3.38607 237.893 4.32342C237.893 5.26078 237.56 6.16744 236.956 6.88058C236.351 7.59371 235.513 8.06661 234.592 8.21436V291.71C237.198 299.827 236.551 305.343 237.531 306.919V307.057L238.843 308.594C239.571 309.33 240.343 310.02 241.155 310.662L245.386 333.653L249.068 350.97L256.316 356.979V255.815L259.568 248.506L261.919 233.257V221.22H253.887Z" fill="url(#paint5_linear_12849_52542)"/>
<path d="M185.032 244.075C184.682 243.051 183.99 242.181 183.074 241.612C182.456 241.138 181.96 240.524 181.624 239.819C181.526 239.622 181.213 219.173 181.134 218.818C181.056 218.463 180.586 218.129 180.155 217.892H179.998C179.548 218.129 179.077 218.503 179.019 218.818C178.96 219.133 178.627 239.622 178.509 239.819C178.188 240.532 177.688 241.15 177.06 241.612C176.146 242.183 175.454 243.052 175.101 244.075C175.013 244.55 175.013 245.037 175.101 245.513H185.032C185.112 245.037 185.112 244.551 185.032 244.075Z" fill="#DEBB5C"/>
<path d="M20.3925 535.154C20.3925 541.478 16.5923 545.3 10.2652 545.3C3.93806 545.3 0.0791016 541.478 0.0791016 535.154V520.832H2.84108V535.154C2.78943 536.163 2.94244 537.172 3.29074 538.119C3.63904 539.067 4.17536 539.933 4.8671 540.666C5.55884 541.398 6.39153 541.981 7.31449 542.38C8.23744 542.778 9.23137 542.984 10.2358 542.984C11.2402 542.984 12.2342 542.778 13.1571 542.38C14.0801 541.981 14.9128 541.398 15.6045 540.666C16.2962 539.933 16.8326 539.067 17.1809 538.119C17.5292 537.172 17.6821 536.163 17.6305 535.154V520.832H20.3925V535.154Z" fill="#231F20"/>
<path d="M56.4538 533.874V545.162H53.7702V534.602C53.8383 533.914 53.7553 533.218 53.5268 532.565C53.2984 531.912 52.9301 531.317 52.4481 530.823C51.966 530.329 51.382 529.947 50.7371 529.705C50.0923 529.463 49.4025 529.366 48.7163 529.421C44.9553 529.52 42.8397 532.238 42.8397 536.159V545.162H40.1169V534.602C40.1922 533.912 40.1141 533.214 39.8882 532.557C39.6624 531.901 39.2943 531.303 38.8107 530.807C38.3271 530.312 37.74 529.93 37.0919 529.69C36.4438 529.451 35.7508 529.359 35.063 529.421C34.2173 529.427 33.3822 529.612 32.6117 529.962C31.8412 530.313 31.1522 530.822 30.5893 531.457C30.0264 532.092 29.602 532.838 29.3435 533.648C29.085 534.458 28.9982 535.313 29.0885 536.159V545.162H26.4244V526.919H29.0885V531.056C29.6617 529.708 30.6408 528.574 31.8882 527.814C33.1357 527.054 34.5885 526.707 36.0425 526.821C37.5195 526.701 38.9901 527.119 40.187 527.997C41.384 528.876 42.2279 530.157 42.5655 531.608C43.0596 530.117 44.0361 528.835 45.3391 527.967C46.6422 527.1 48.1967 526.696 49.7545 526.821C53.9269 526.742 56.4538 529.441 56.4538 533.874Z" fill="#231F20"/>
<path d="M64.8009 530.86C65.3327 529.576 66.2433 528.487 67.4098 527.74C68.5762 526.994 69.9424 526.625 71.3239 526.683V529.422C70.505 529.357 69.6817 529.461 68.904 529.727C68.1263 529.993 67.4106 530.415 66.8003 530.968C66.1901 531.521 65.6981 532.193 65.3544 532.943C65.0106 533.693 64.8223 534.506 64.8009 535.332V545.064H62.0977V526.92H64.8009V530.86Z" fill="#231F20"/>
<path d="M86.2047 542.345C85.4151 543.343 84.3966 544.133 83.2365 544.648C82.0765 545.163 80.8095 545.387 79.5445 545.301C78.7654 545.377 77.9791 545.29 77.2354 545.044C76.4917 544.798 75.807 544.4 75.2248 543.874C74.6426 543.347 74.1756 542.705 73.8536 541.987C73.5316 541.27 73.3617 540.493 73.3545 539.705C73.3545 536.494 75.8618 534.485 80.1518 534.465H86.1459V533.382C86.1459 530.702 84.4809 529.106 81.2683 529.106C79.1719 529.175 77.1501 529.906 75.4897 531.195L74.3535 529.225C76.4893 527.601 79.1002 526.735 81.7776 526.762C86.283 526.762 88.7512 529.146 88.81 533.086V545.182H86.1851L86.2047 542.345ZM86.2047 538.839V536.652H80.5435C77.5073 536.652 75.901 537.578 75.901 539.587C75.901 541.597 77.5269 542.936 80.093 542.936C81.4166 543.044 82.7375 542.697 83.8402 541.953C84.9429 541.209 85.7625 540.111 86.1655 538.839H86.2047Z" fill="#231F20"/>
<path d="M111.206 533.875V545.163H108.503V534.603C108.567 533.908 108.477 533.207 108.24 532.55C108.004 531.893 107.626 531.297 107.134 530.804C106.642 530.311 106.048 529.934 105.394 529.698C104.74 529.463 104.043 529.375 103.351 529.442C102.494 529.426 101.644 529.593 100.856 529.933C100.068 530.273 99.3608 530.777 98.7811 531.412C98.2015 532.047 97.7626 532.799 97.4935 533.617C97.2243 534.436 97.1312 535.302 97.2201 536.16V545.163H94.556V519.375H97.2593V530.86C97.8596 529.51 98.8627 528.38 100.13 527.628C101.397 526.876 102.865 526.539 104.331 526.664C105.278 526.59 106.23 526.729 107.117 527.069C108.005 527.41 108.806 527.944 109.464 528.634C110.122 529.324 110.619 530.151 110.92 531.057C111.222 531.964 111.319 532.926 111.206 533.875Z" fill="#231F20"/>
<path d="M138.393 541.577C137.471 542.687 136.33 543.591 135.042 544.232C133.753 544.873 132.346 545.237 130.91 545.301C129.999 545.351 129.087 545.217 128.228 544.906C127.369 544.595 126.581 544.114 125.91 543.491C125.24 542.869 124.701 542.117 124.325 541.28C123.948 540.444 123.743 539.54 123.721 538.622C123.721 535.076 126.385 533.244 129.206 531.707C127.768 530.126 126.893 528.11 126.718 525.974C126.734 525.232 126.901 524.501 127.211 523.826C127.52 523.152 127.964 522.549 128.516 522.055C129.067 521.562 129.714 521.188 130.416 520.957C131.118 520.726 131.86 520.644 132.595 520.714C133.289 520.635 133.992 520.701 134.659 520.91C135.326 521.119 135.943 521.465 136.47 521.926C136.997 522.388 137.423 522.954 137.72 523.59C138.017 524.226 138.18 524.917 138.197 525.62C138.197 528.929 135.22 530.624 132.222 532.239C133.692 533.973 135.67 535.982 138.099 538.386C139.111 536.914 139.946 535.327 140.587 533.658L142.428 535.076C141.721 536.804 140.807 538.438 139.705 539.942L143.878 544.079L142.428 545.616L138.393 541.577ZM136.845 540.021C134.181 537.342 132.007 535.115 130.381 533.205C127.991 534.524 125.993 535.982 125.993 538.425C126.002 539.067 126.142 539.7 126.402 540.286C126.662 540.872 127.038 541.398 127.508 541.833C127.977 542.268 128.529 542.603 129.131 542.816C129.733 543.03 130.371 543.118 131.008 543.075C132.14 543.008 133.245 542.701 134.251 542.175C135.257 541.649 136.141 540.915 136.845 540.021ZM130.969 530.781C133.633 529.383 135.944 528.063 135.944 525.62C135.945 525.189 135.854 524.764 135.679 524.371C135.503 523.979 135.247 523.629 134.926 523.344C134.606 523.058 134.228 522.845 133.82 522.718C133.411 522.591 132.98 522.552 132.555 522.605C132.091 522.562 131.623 522.615 131.181 522.762C130.738 522.909 130.33 523.146 129.983 523.458C129.635 523.771 129.355 524.152 129.161 524.578C128.967 525.004 128.862 525.466 128.853 525.935C129.037 527.772 129.806 529.5 131.047 530.86L130.969 530.781Z" fill="#231F20"/>
<path d="M172.918 545.162V534.465H158.344V545.162H155.563V520.832H158.344V531.805H172.918V520.832H175.68V545.162H172.918Z" fill="#231F20"/>
<path d="M193.575 542.345C192.785 543.343 191.767 544.133 190.607 544.648C189.447 545.163 188.18 545.387 186.915 545.3C186.136 545.374 185.351 545.285 184.609 545.038C183.866 544.791 183.183 544.392 182.601 543.866C182.02 543.341 181.553 542.7 181.23 541.984C180.907 541.267 180.735 540.492 180.725 539.705C180.725 536.494 183.252 534.485 187.541 534.465H193.418V533.381C193.418 530.702 191.753 529.106 188.541 529.106C186.444 529.175 184.422 529.906 182.762 531.195L181.626 529.225C183.763 527.603 186.373 526.737 189.05 526.762C193.555 526.762 196.043 529.146 196.082 533.086V545.182H193.438L193.575 542.345ZM193.575 538.839V536.652H187.894C184.858 536.652 183.271 537.578 183.271 539.587C183.271 541.597 184.897 542.936 187.444 542.936C188.774 543.053 190.103 542.711 191.214 541.966C192.325 541.221 193.151 540.118 193.555 538.839H193.575Z" fill="#231F20"/>
<path d="M204.453 545.853C204.453 550.069 202.063 552.039 199.223 551.999C197.894 552.001 196.6 551.565 195.54 550.758L196.422 548.591C197.176 549.176 198.095 549.507 199.047 549.537C200.633 549.537 201.672 548.493 201.672 546.266V526.92H204.375L204.453 545.853ZM204.943 521.601C204.92 521.961 204.793 522.307 204.577 522.596C204.361 522.884 204.066 523.103 203.729 523.225C203.391 523.347 203.025 523.368 202.676 523.283C202.327 523.199 202.01 523.014 201.764 522.751C201.518 522.488 201.354 522.158 201.292 521.803C201.23 521.447 201.272 521.081 201.415 520.749C201.557 520.418 201.792 520.135 202.092 519.937C202.392 519.738 202.743 519.631 203.102 519.631C203.354 519.627 203.605 519.677 203.838 519.776C204.071 519.876 204.281 520.023 204.454 520.208C204.627 520.393 204.76 520.613 204.844 520.853C204.928 521.092 204.962 521.347 204.943 521.601Z" fill="#231F20"/>
<path d="M214.398 545.853C214.398 550.069 212.008 552.039 209.187 551.999C207.852 552.001 206.552 551.565 205.485 550.758L206.445 548.532C207.199 549.117 208.117 549.448 209.069 549.478C210.676 549.478 211.694 548.433 211.694 546.207V526.92H214.398V545.853ZM214.887 521.601C214.864 521.961 214.737 522.307 214.521 522.596C214.306 522.884 214.011 523.103 213.673 523.225C213.335 523.347 212.969 523.368 212.62 523.283C212.271 523.199 211.954 523.014 211.708 522.751C211.462 522.488 211.298 522.158 211.236 521.803C211.174 521.447 211.217 521.081 211.359 520.749C211.501 520.418 211.737 520.135 212.036 519.937C212.336 519.738 212.687 519.631 213.046 519.631C213.299 519.627 213.55 519.677 213.782 519.776C214.015 519.876 214.225 520.023 214.398 520.208C214.571 520.393 214.704 520.613 214.788 520.853C214.873 521.092 214.906 521.347 214.887 521.601Z" fill="#231F20"/>
<path d="M244.036 522.98L242.86 525.6C240.879 524.292 238.57 523.575 236.2 523.531C233.086 523.531 231.048 524.713 231.048 526.762C231.048 533.027 244.662 529.757 244.623 538.583C244.623 542.661 241.058 545.261 235.887 545.261C232.443 545.235 229.135 543.905 226.621 541.538L227.855 539.036C230.011 541.164 232.887 542.396 235.906 542.484C239.413 542.484 241.587 541.065 241.587 538.721C241.587 532.338 227.993 535.746 227.993 527.018C227.993 523.196 231.342 520.714 236.357 520.714C239.079 520.718 241.743 521.504 244.036 522.98Z" fill="#231F20"/>
<path d="M265.333 537.065H250.484C250.61 538.718 251.368 540.257 252.599 541.36C253.83 542.462 255.439 543.041 257.086 542.975C258.129 543.005 259.167 542.817 260.135 542.424C261.102 542.031 261.978 541.44 262.708 540.69L264.197 542.285C263.264 543.292 262.127 544.086 260.863 544.612C259.599 545.139 258.238 545.387 256.87 545.339C254.505 545.229 252.272 544.207 250.636 542.484C249.001 540.762 248.088 538.471 248.088 536.09C248.088 533.708 249.001 531.417 250.636 529.695C252.272 527.972 254.505 526.95 256.87 526.84C262.708 526.741 265.607 530.859 265.333 537.065ZM263.021 534.799C263.026 534.011 262.869 533.231 262.559 532.507C262.249 531.783 261.794 531.131 261.222 530.593C260.65 530.054 259.973 529.641 259.234 529.378C258.495 529.115 257.711 529.009 256.929 529.066C255.322 528.98 253.745 529.532 252.539 530.605C251.333 531.677 250.595 533.184 250.484 534.799H263.021Z" fill="#231F20"/>
<path d="M272.339 530.861C272.877 529.577 273.791 528.489 274.961 527.743C276.13 526.996 277.498 526.627 278.882 526.684V529.422C278.061 529.355 277.236 529.457 276.456 529.721C275.676 529.986 274.958 530.408 274.345 530.961C273.733 531.514 273.239 532.187 272.894 532.939C272.549 533.691 272.36 534.505 272.339 535.333V545.065H269.656V526.92H272.339V530.861Z" fill="#231F20"/>
<path d="M287.698 545.163L280.49 526.841H283.35L289.226 542.346L294.985 526.841H297.708L290.558 545.163H287.698Z" fill="#231F20"/>
<path d="M303.843 521.601C303.805 521.94 303.67 522.262 303.455 522.526C303.24 522.791 302.953 522.987 302.63 523.092C302.306 523.196 301.959 523.204 301.631 523.115C301.303 523.026 301.008 522.844 300.78 522.59C300.553 522.336 300.403 522.021 300.35 521.683C300.296 521.346 300.341 521 300.478 520.687C300.615 520.375 300.84 520.109 301.124 519.921C301.408 519.734 301.74 519.633 302.08 519.631C302.328 519.632 302.573 519.686 302.799 519.788C303.025 519.89 303.228 520.039 303.394 520.224C303.56 520.409 303.686 520.628 303.763 520.865C303.84 521.102 303.867 521.352 303.843 521.601ZM300.767 545.242V526.92H303.431V545.242H300.767Z" fill="#231F20"/>
<path d="M323.862 529.48L322.373 531.45C320.908 530.06 318.96 529.304 316.947 529.342C315.165 529.342 313.456 530.054 312.196 531.321C310.936 532.588 310.228 534.307 310.228 536.099C310.228 537.891 310.936 539.61 312.196 540.877C313.456 542.145 315.165 542.857 316.947 542.857C318 542.91 319.052 542.726 320.025 542.317C320.998 541.908 321.867 541.284 322.569 540.492L324.136 542.167C323.231 543.209 322.104 544.034 320.839 544.579C319.575 545.125 318.204 545.378 316.83 545.319C314.464 545.209 312.231 544.187 310.596 542.464C308.96 540.742 308.047 538.451 308.047 536.07C308.047 533.688 308.96 531.398 310.596 529.675C312.231 527.952 314.464 526.93 316.83 526.82C318.12 526.756 319.41 526.959 320.62 527.416C321.83 527.874 322.933 528.576 323.862 529.48Z" fill="#231F20"/>
<path d="M344.075 537.066H329.207C329.338 538.72 330.1 540.26 331.334 541.362C332.569 542.464 334.179 543.042 335.828 542.976C336.857 542.997 337.879 542.808 338.832 542.418C339.786 542.028 340.65 541.447 341.372 540.71L342.861 542.306C341.928 543.313 340.791 544.106 339.527 544.633C338.263 545.16 336.902 545.408 335.534 545.36C333.169 545.25 330.936 544.227 329.3 542.505C327.665 540.782 326.752 538.492 326.752 536.11C326.752 533.728 327.665 531.438 329.3 529.715C330.936 527.993 333.169 526.97 335.534 526.861C341.372 526.742 344.349 530.86 344.075 537.066ZM341.666 534.8C341.67 534.012 341.513 533.231 341.203 532.508C340.894 531.784 340.438 531.132 339.866 530.594C339.294 530.055 338.617 529.642 337.879 529.379C337.14 529.116 336.355 529.01 335.574 529.067C333.981 529.007 332.427 529.571 331.239 530.64C330.051 531.71 329.323 533.201 329.207 534.8H341.666Z" fill="#231F20"/>
<path d="M359.412 528.397L358.374 530.564C356.895 529.62 355.188 529.103 353.437 529.067C351.479 529.067 349.853 529.796 349.853 531.509C349.853 535.568 360 533.48 360 540.06C360 543.665 356.826 545.261 353.32 545.261C350.76 545.306 348.275 544.394 346.346 542.7L347.385 540.73C349.057 542.213 351.207 543.039 353.437 543.054C355.573 543.054 357.355 542.246 357.355 540.454C357.473 536.021 347.267 538.287 347.306 531.785C347.306 528.279 350.303 526.821 353.633 526.821C355.67 526.778 357.676 527.325 359.412 528.397Z" fill="#231F20"/>
<path d="M245.387 485.115L233.79 460.962C233.681 460.6 233.537 460.25 233.359 459.917C233.183 459.386 232.458 457.731 231.126 454.914C229.794 452.096 229.03 450.126 228.364 448.412H228.129C228.129 448.412 216.905 448.412 214.065 448.117C211.224 447.821 209.246 447.821 207.698 447.821H205.975V448.708C208.688 448.788 211.334 449.575 213.653 450.993C215.884 452.442 217.669 454.489 218.805 456.903L202.429 488.937C199.478 494.729 196.213 498.551 192.635 500.403V501.309C193.579 501.273 194.52 501.187 195.455 501.053C197.532 500.836 199.373 500.718 200.686 500.718C202.434 500.734 204.18 500.846 205.916 501.053C206.877 501.193 207.844 501.278 208.815 501.309V500.422C207.633 500.117 206.585 499.424 205.837 498.454C205.089 497.484 204.682 496.292 204.682 495.064C204.683 493.576 205.039 492.11 205.72 490.789C206.17 489.863 206.425 489.39 206.445 489.351L206.699 488.72L211.381 479.48H229.99L234.378 488.72C235.693 491.071 236.525 493.664 236.827 496.344C236.864 497.383 236.491 498.394 235.791 499.158C235.09 499.922 234.118 500.376 233.085 500.422V501.309C237.551 500.981 241.384 500.784 244.584 500.718H248.501C250.617 500.718 253.888 500.915 258.296 501.309V500.422C253.712 498.61 249.422 493.527 245.387 485.115ZM213.203 475.698L221.038 460.627L228.188 475.698H213.203ZM88.1097 429.598C83.539 427.799 79.2295 422.709 75.1812 414.33L63.6043 390.157C63.4808 389.804 63.3301 389.461 63.1538 389.132C62.9971 388.6 62.2527 386.926 60.9403 384.109C59.6278 381.291 58.8247 379.341 58.1782 377.607H57.9236C57.9236 377.607 46.6993 377.607 43.8786 377.312C41.0578 377.016 39.0598 377.016 37.5123 377.016H35.7884V377.903C38.4962 377.978 41.1371 378.766 43.4476 380.188C45.6842 381.631 47.47 383.679 48.5994 386.098L32.2233 418.132C29.2654 423.924 25.9941 427.746 22.429 429.598V430.484C22.8795 430.484 23.8198 430.484 25.2302 430.248C26.9658 430.034 28.7118 429.915 30.4603 429.893C32.2092 429.907 33.9557 430.025 35.6905 430.248C37.0813 430.406 38.0411 430.484 38.6092 430.484V429.598C37.425 429.293 36.3749 428.601 35.6235 427.631C34.872 426.662 34.4615 425.469 34.4564 424.239C34.465 422.758 34.8207 421.3 35.4946 419.984C35.9648 419.058 36.1998 418.565 36.239 418.546L36.4741 417.896L41.1753 408.676H59.7649L64.1528 417.896C65.4814 420.249 66.3211 422.85 66.621 425.539C66.6528 426.578 66.2754 427.587 65.571 428.347C64.8666 429.107 63.8923 429.557 62.86 429.598V430.484C67.3458 430.169 71.1655 429.972 74.3585 429.893H78.2762C80.3722 429.893 83.6631 430.09 88.0705 430.484L88.1097 429.598ZM43.0558 404.952L50.8913 389.861L58.0411 404.952H43.0558ZM231.107 430.563C231.577 430.563 232.517 430.484 233.928 430.327C235.663 430.113 237.409 429.994 239.158 429.972C240.907 429.986 242.653 430.104 244.388 430.327C245.759 430.484 246.738 430.563 247.287 430.563V429.677C246.105 429.371 245.057 428.678 244.309 427.708C243.561 426.738 243.154 425.546 243.154 424.318C243.153 422.836 243.509 421.376 244.192 420.063C244.643 419.137 244.897 418.644 244.917 418.624L245.171 417.974L249.853 408.754H268.443L272.831 417.974C274.159 420.328 274.999 422.929 275.299 425.618C275.331 426.654 274.956 427.66 274.256 428.419C273.556 429.179 272.586 429.631 271.557 429.677V430.563C276.023 430.248 279.856 430.051 283.056 429.972H286.974C289.076 429.972 292.341 430.169 296.768 430.563V429.677C292.184 427.877 287.875 422.788 283.839 414.409L272.243 390.236C272.134 389.88 271.99 389.537 271.812 389.211C271.642 388.686 270.898 387.011 269.579 384.187C268.404 381.561 267.483 379.393 266.817 377.686H266.582C266.582 377.686 255.338 377.686 252.517 377.391C249.696 377.095 247.698 377.095 246.151 377.095H244.427V377.982C247.14 378.062 249.786 378.849 252.106 380.267C254.332 381.722 256.115 383.767 257.258 386.177L240.882 418.211C237.93 424.003 234.665 427.825 231.087 429.677L231.107 430.563ZM259.53 389.94L266.68 405.031H251.773L259.53 389.94ZM97.238 386C93.5917 382.589 89.3651 379.867 84.76 377.962V377.075L93.5945 377.666H104.976L146.464 413.128V392.541C146.529 389.896 146.299 387.253 145.779 384.66C145.319 382.929 144.333 381.386 142.958 380.247C141.374 379.03 139.506 378.243 137.532 377.962V377.075L139.256 377.233C143.565 377.528 146.484 377.666 148.031 377.666C149.579 377.666 152.654 377.489 157.728 377.115H158.139L166.562 377.666H177.943L219.432 413.128V392.541C219.502 389.895 219.265 387.25 218.727 384.66C218.282 382.928 217.301 381.382 215.926 380.247C214.342 379.03 212.473 378.243 210.5 377.962V377.075L212.223 377.233C216.533 377.528 219.451 377.666 220.999 377.666C222.546 377.666 225.779 377.469 231.107 377.075V377.962C229.424 378.186 227.855 378.937 226.621 380.109C225.382 381.215 224.49 382.659 224.055 384.266C223.534 386.592 223.304 388.975 223.369 391.358V430.543H222.39L177.708 392.304V415.374C177.708 420.398 178.335 423.885 179.667 425.835C180.368 426.849 181.266 427.71 182.306 428.367C183.346 429.023 184.507 429.462 185.72 429.657V430.543C180.771 430.149 177.401 429.952 175.612 429.952C173.653 429.952 170.578 430.149 166.543 430.543V429.657C167.738 429.477 168.877 429.03 169.877 428.348C170.878 427.666 171.713 426.767 172.321 425.717C173.572 422.292 174.093 418.64 173.849 415V389.113L170.304 386.079C166.696 382.745 162.531 380.077 158.002 378.198C156.411 378.444 154.93 379.165 153.751 380.267C152.519 381.378 151.629 382.82 151.185 384.424C150.665 386.75 150.434 389.132 150.5 391.516V430.701H149.403L104.721 392.462V415.531C104.721 420.555 105.348 424.042 106.68 425.993C107.385 427.007 108.286 427.868 109.329 428.525C110.373 429.181 111.537 429.62 112.752 429.815V430.701C107.777 430.307 104.407 430.11 102.625 430.11C100.842 430.11 97.6102 430.307 93.5554 430.701V429.815C94.7691 429.653 95.9299 429.214 96.9486 428.531C97.9673 427.848 98.8168 426.939 99.4319 425.874C100.683 422.449 101.203 418.798 100.96 415.157V389.27L97.238 386ZM40.6268 455.721C40.6268 458.125 40.7836 459.386 40.7836 459.484V460.784H39.7062C38.792 454.835 35.9974 451.86 31.3222 451.86H21.7434C20.7598 451.841 19.78 451.988 18.8443 452.293C18.3575 455.758 18.1413 459.256 18.1979 462.754V473.038H26.8364C29.6174 473.212 32.4005 472.734 34.9657 471.64C35.8367 471.141 36.5826 470.449 37.1463 469.616C37.7099 468.782 38.0763 467.83 38.2174 466.833H39.3144C39.0793 470.392 38.9618 472.854 38.9618 474.22C38.9618 475.048 38.9618 476.447 39.1185 478.436C39.2752 480.426 39.3144 481.667 39.3144 482.495V484.15H38.2174C38.0607 478.909 35.2792 476.269 29.8923 476.269H18.1391V487.775C18.1391 495.248 20.4114 499.464 24.9559 500.422V501.309C20.2743 500.915 17.336 500.718 16.1215 500.718H10.3428C7.46327 500.718 3.99608 500.915 0 501.309V500.422C1.06831 500.117 2.05787 499.582 2.9001 498.854C3.74233 498.126 4.41709 497.223 4.87758 496.207C6.04961 492.933 6.5494 489.455 6.34673 485.982V461.454C6.34673 456.962 5.75908 453.83 4.58376 452.037C3.52743 450.398 1.88725 449.228 0 448.767V447.821C3.49984 448.11 6.94743 448.307 10.3428 448.412H26.3859C29.938 448.412 34.6197 448.215 40.4309 447.821C40.4309 448.688 40.4309 449.791 40.4309 451.19C40.4701 452.057 40.5093 453.475 40.6073 455.662L40.6268 455.721ZM61.5671 448.471C65.193 448.496 68.8171 448.299 72.4192 447.88V448.767C70.4558 449.147 68.7188 450.285 67.5808 451.939C66.2684 453.771 65.6219 457.514 65.6219 463.208V486.849C65.6219 491.951 66.3075 495.359 67.6983 497.113C68.8678 498.72 70.5353 499.892 72.4388 500.442V501.309C68.8371 500.886 65.2127 500.689 61.5867 500.718H57.8844C55.5207 500.718 51.9164 500.915 47.0715 501.309V500.422C48.2272 500.169 49.3077 499.647 50.2263 498.898C51.1448 498.149 51.8758 497.193 52.3605 496.108C53.5726 492.293 54.0708 488.285 53.8296 484.287V462.065C54.0225 458.831 53.5007 455.595 52.3017 452.589C51.7806 451.579 51.0398 450.7 50.1343 450.018C49.2287 449.335 48.1818 448.867 47.0715 448.649V447.762C51.0806 448.09 54.685 448.287 57.8844 448.353L61.5671 448.471ZM311.165 448.117L316.748 447.762V448.649C315.085 448.939 313.56 449.761 312.4 450.993C311.227 452.262 310.439 453.84 310.127 455.544C309.707 458.75 309.543 461.985 309.638 465.217V487.046C309.638 495.241 312.008 499.674 316.748 500.344V501.309C312.4 500.915 309.598 500.718 308.345 500.718H297.356C297.745 499.146 297.929 497.531 297.904 495.911C292.817 499.405 286.806 501.285 280.646 501.309C275.973 501.31 271.314 500.781 266.758 499.733C264.775 499.353 262.898 498.547 261.254 497.369C259.718 496.326 258.557 494.813 257.943 493.054C257.304 490.413 257.04 487.693 257.16 484.977V461.336C257.348 458.272 256.79 455.209 255.534 452.411C254.986 451.453 254.232 450.63 253.327 450.003C252.422 449.376 251.389 448.96 250.304 448.787V447.9L261.312 448.491H264.76C268.208 448.491 272.021 448.294 276.2 447.9V448.787C274.547 449.014 273.01 449.767 271.812 450.934C270.691 451.998 269.901 453.367 269.54 454.874C269.072 457.207 268.875 459.587 268.952 461.966V463.011V481.963C268.822 485.033 269.138 488.106 269.892 491.084C270.585 493.163 272.033 494.901 273.947 495.95C276.364 497.32 279.107 498.001 281.881 497.92C287.673 497.674 293.265 495.722 297.963 492.306V463.345C298.032 460.609 297.848 457.872 297.414 455.17C297.122 453.619 296.387 452.189 295.299 451.052C294.123 449.945 292.677 449.17 291.107 448.806V447.92H292.478C293.203 447.92 293.986 448.018 294.809 448.117C297.493 448.274 299.922 448.393 302.057 448.452H305.602C308.07 448.353 309.892 448.274 311.165 448.117ZM196.65 462.814C194.717 459.053 191.78 455.908 188.168 453.731C182.164 450.062 175.273 448.12 168.247 448.117C167.228 448.117 165.348 448.215 162.625 448.373C160.81 448.517 157.636 448.635 153.105 448.727H149.598C146.543 448.727 142.88 448.452 138.59 448.117V449.023C139.707 449.277 140.761 449.757 141.687 450.435C142.613 451.112 143.392 451.973 143.977 452.963C145.177 455.866 145.699 459.006 145.504 462.144V482.633C145.504 489.515 144.995 494.046 143.977 496.226C143.782 496.616 143.56 496.992 143.311 497.349C139.393 497.349 137.12 496.817 130.872 490.434C126.66 486.179 120.196 479.362 118.119 477.944C115.954 476.537 113.493 475.653 110.93 475.363C114.057 474.868 117.119 474.022 120.059 472.841C125.387 470.714 128.051 466.931 128.051 461.73C128.051 456.529 125.289 452.549 119.549 450.303C115.27 448.722 110.749 447.902 106.19 447.88C104.584 447.88 102.488 447.998 99.9216 448.235C97.6885 448.392 95.5926 448.471 93.6141 448.471H90.0098C84.5641 448.314 80.7835 448.117 78.668 447.88V448.767C83.5521 449.791 85.9876 453.909 85.9745 461.119V486.612C85.9745 491.866 85.2824 495.438 83.8981 497.329C83.2996 498.197 82.5231 498.926 81.6209 499.466C80.7186 500.007 79.7117 500.346 78.668 500.462V501.309C80.4484 501.324 82.2281 501.225 83.9961 501.014C85.7787 500.817 87.0715 500.718 87.9138 500.718H95.0637C97.6298 500.718 100.94 500.915 104.858 501.309V500.422C100.118 499.733 97.7473 495.418 97.7473 487.518V475.698C99.9074 476.443 101.927 477.548 103.722 478.968C106.825 481.656 109.756 484.538 112.498 487.597C115.181 490.513 117.865 493.941 119.785 495.773C121.276 497.247 122.867 498.616 124.545 499.871C126.991 501.521 129.886 502.368 132.831 502.294C133.79 502.294 138.707 501.467 138.707 501.467C143.722 501.053 147.385 500.856 149.716 500.856H156.219C156.552 500.825 156.886 500.825 157.218 500.856C161.352 501.211 165.054 501.408 168.364 501.408C174.751 501.225 181.03 499.702 186.797 496.935C190.798 494.888 194.133 491.732 196.406 487.839C198.68 483.946 199.798 479.48 199.628 474.969C199.641 470.752 198.618 466.597 196.65 462.873V462.814ZM104.016 473.511C101.89 473.524 99.7719 473.273 97.7081 472.762V462.006C97.4972 458.8 97.7947 455.582 98.5896 452.471C100.239 451.43 102.169 450.927 104.114 451.032C111.466 451.032 115.135 454.657 115.122 461.907C115.122 469.788 111.42 473.57 104.016 473.57V473.511ZM181.645 492.188C179.816 494.141 177.586 495.671 175.11 496.671C172.634 497.672 169.971 498.118 167.307 497.98C164.372 498.024 161.446 497.625 158.629 496.798C157.482 491.587 157.002 486.251 157.199 480.919V468.822C157.199 459.898 157.453 454.677 157.982 453.199C160.584 451.981 163.442 451.42 166.308 451.564C173.085 451.564 178.217 453.613 181.704 457.711C185.191 461.809 186.934 467.561 186.934 474.969C186.934 482.593 185.171 488.346 181.645 492.247V492.188ZM360 484.859C359.987 486.783 359.556 488.681 358.737 490.42C357.919 492.159 356.732 493.697 355.26 494.926C352.77 497.208 349.815 498.915 346.601 499.93C343.448 501.03 340.144 501.635 336.807 501.723C333.724 501.62 330.657 501.244 327.64 500.6C325.113 500.041 322.545 499.691 319.961 499.556L319.589 499.162C319.589 498.584 319.589 497.855 319.589 496.975C319.589 495.911 319.471 494.276 319.275 492.05C319.079 489.823 319.001 488.109 319.001 487.105C318.992 485.873 319.064 484.643 319.216 483.421H320.431C320.533 485.466 321.079 487.463 322.03 489.274C322.981 491.084 324.314 492.664 325.935 493.901C329.181 496.574 333.259 498.011 337.453 497.96C340.394 498.093 343.284 497.164 345.602 495.34C346.579 494.608 347.373 493.657 347.92 492.562C348.468 491.468 348.754 490.26 348.756 489.035C348.801 487.854 348.544 486.681 348.009 485.629C347.474 484.577 346.679 483.681 345.7 483.027C342.081 480.931 338.192 479.347 334.143 478.318C330.807 477.352 327.536 476.174 324.349 474.792C322.218 473.817 320.38 472.295 319.021 470.379C317.65 468.553 316.92 466.322 316.944 464.035C316.906 461.211 317.911 458.473 319.765 456.352C321.884 453.765 324.512 451.645 327.483 450.126C331.945 448.118 336.798 447.142 341.685 447.27C346.729 447.38 351.747 448.04 356.65 449.24V449.575L356.768 451.545C356.768 452.53 356.768 453.731 356.768 455.11C356.885 456.805 356.944 458.282 356.944 459.583C356.944 460.43 356.944 461.553 356.827 462.754H355.71C355.772 461.014 355.346 459.29 354.48 457.782C353.614 456.273 352.343 455.04 350.813 454.224C347.277 452.315 343.306 451.371 339.295 451.486C336.202 451.358 333.136 452.101 330.441 453.633C329.449 454.083 328.597 454.795 327.976 455.694C327.355 456.593 326.989 457.644 326.915 458.735C326.901 459.742 327.151 460.734 327.639 461.612C328.127 462.491 328.837 463.224 329.696 463.739C333.274 465.779 337.09 467.36 341.058 468.448C344.819 469.577 348.503 470.953 352.086 472.565C354.327 473.738 356.25 475.442 357.689 477.53C359.191 479.698 359.997 482.276 360 484.918V484.859ZM308.913 429.834L298.355 430.425V429.539C299.925 429.102 301.33 428.203 302.39 426.958C303.449 425.692 304.165 424.172 304.466 422.545C304.875 419.688 305.039 416.801 304.956 413.916V391.102C304.956 386.236 304.329 382.946 302.997 381.252C301.909 379.579 300.215 378.399 298.276 377.962V377.075C300.235 377.351 303.82 377.548 308.835 377.666H312.478C315.377 377.666 319.001 377.469 323.369 377.075V377.962C322.23 378.213 321.159 378.711 320.232 379.423C319.305 380.134 318.544 381.041 318.002 382.079C316.8 385.434 316.293 389.001 316.513 392.56V400.835H341.567V391.358C341.748 388.149 341.192 384.94 339.941 381.981C339.392 380.993 338.642 380.132 337.741 379.453C336.841 378.774 335.808 378.293 334.711 378.041V377.154C338.315 377.551 341.938 377.748 345.563 377.745H349.226C352.799 377.744 356.37 377.546 359.922 377.154V378.041C355.756 379.249 353.588 383.255 353.418 390.058L353.262 417.186C353.262 424.594 355.482 428.777 359.922 429.736V430.622C353.679 430.228 350.114 430.031 349.226 430.031H345.563C344.114 430.031 340.509 430.268 334.711 430.622V429.736C335.717 429.518 336.671 429.104 337.518 428.516C338.365 427.928 339.089 427.177 339.647 426.308C340.94 424.456 341.606 420.89 341.606 415.591V405.129H316.592V417.186C316.592 421.855 317.258 425.067 318.55 426.603C319.785 428.164 321.501 429.266 323.428 429.736V430.622C319.354 430.307 315.73 430.11 312.537 430.031L308.913 429.834ZM1.74339 441.871C1.2098 442.223 0.653579 442.539 0.0783713 442.817V439.448C1.04913 438.651 1.97143 437.796 2.84035 436.887C5.45105 434.191 7.42593 430.939 8.61902 427.372C9.81319 423.044 10.3611 418.563 10.2449 414.074V388.679C10.4249 386.092 9.96734 383.5 8.91284 381.134C8.30809 380.299 7.54157 379.597 6.6595 379.069C5.77743 378.541 4.79811 378.198 3.78062 378.06V377.016C8.44272 377.345 11.9295 377.542 14.2409 377.607H17.8844C20.5485 377.607 24.094 377.351 28.5407 377.016V377.903C27.5122 377.993 26.5143 378.301 25.6128 378.807C24.7113 379.313 23.9266 380.005 23.3105 380.838C22.2379 383.039 21.7583 385.485 21.9197 387.931V411.335C21.8037 414.564 22.0534 417.796 22.6641 420.969C23.0415 422.728 23.8802 424.354 25.093 425.677C23.2687 425.583 21.4469 425.906 19.765 426.623C18.0193 427.932 16.3935 429.396 14.907 430.997C10.88 435.06 6.47164 438.721 1.74339 441.931V441.871Z" fill="url(#paint6_linear_12849_52542)"/>
<defs>
<linearGradient id="paint0_linear_12849_52542" x1="55.9199" y1="160.029" x2="302.247" y2="160.029" gradientUnits="userSpaceOnUse">
<stop stop-color="#B61D22"/>
<stop offset="1" stop-color="#ED1C24"/>
</linearGradient>
<linearGradient id="paint1_linear_12849_52542" x1="214.557" y1="503.377" x2="214.557" y2="279.831" gradientUnits="userSpaceOnUse">
<stop stop-color="#006536"/>
<stop offset="1" stop-color="#008D48"/>
</linearGradient>
<linearGradient id="paint2_linear_12849_52542" x1="180.029" y1="369.076" x2="180.029" y2="268.365" gradientUnits="userSpaceOnUse">
<stop stop-color="#006536"/>
<stop offset="1" stop-color="#008D48"/>
</linearGradient>
<linearGradient id="paint3_linear_12849_52542" x1="55.9286" y1="270.315" x2="304.019" y2="270.315" gradientUnits="userSpaceOnUse">
<stop stop-color="#231F20"/>
<stop offset="1" stop-color="#4D4D4F"/>
</linearGradient>
<linearGradient id="paint4_linear_12849_52542" x1="221.056" y1="295.651" x2="221.056" y2="90.0725" gradientUnits="userSpaceOnUse">
<stop stop-color="#B59317"/>
<stop offset="1" stop-color="#DEBB5C"/>
</linearGradient>
<linearGradient id="paint5_linear_12849_52542" x1="248.305" y1="403.138" x2="248.305" y2="90.7413" gradientUnits="userSpaceOnUse">
<stop stop-color="#B59317"/>
<stop offset="1" stop-color="#DEBB5C"/>
</linearGradient>
<linearGradient id="paint6_linear_12849_52542" x1="180.039" y1="501.959" x2="180.039" y2="374.475" gradientUnits="userSpaceOnUse">
<stop stop-color="#B59317"/>
<stop offset="1" stop-color="#DEBB5C"/>
</linearGradient>
</defs>
</svg>
